{"title":"Stolichani v poveche - Season 2 - Episode 4","uid":8303251,"size":1604507196,"categoryP":"video","categoryS":"tv_shows","magnet":"?xt=urn:btih:474e8bc860e1e86ab210f72298597ef3d00a5684&amp;dn=Stolichani+v+poveche+-+Season+2+-+Episode+4&amp;tr=udp%3A%2F%2Ftracker.openbittorrent.com%3A80&amp;tr=udp%3A%2F%2Fopen.demonii.com%3A1337&amp;tr=udp%3A%2F%2Ftracker.coppersurfer.tk%3A6969&amp;tr=udp%3A%2F%2Fexodus.desync.com%3A6969","seeders":1,"leechers":0,"uploader":null,"files":1,"time":1364315829,"description":"Format                                   : AVI\nFormat/Info                              : Audio Video Interleave\nFormat profile                           : OpenDML\nFile size                                : 1.26 GiB\nDuration                                 : 45mn 52s\nOverall bit rate                         : 3 936 Kbps\nWriting application                      : Lavf52.39.1\n\nVideo\nID                                       : 0\nFormat                                   : MPEG-4 Visual\nFormat profile                           : Advanced Simple@L1\nFormat settings, BVOP                    : 2\nFormat settings, QPel                    : No\nFormat settings, GMC                     : No warppoints\nFormat settings, Matrix                  : Default (H.263)\nCodec ID                                 : DX50\nCodec ID/Hint                            : DivX 5\nDuration                                 : 45mn 51s\nBit rate                                 : 3 794 Kbps\nWidth                                    : 1 280 pixels\nHeight                                   : 720 pixels\nDisplay aspect ratio                     : 16:9\nFrame rate                               : 25.000 fps\nColor space                              : YUV\nChroma subsampling                       : 4:2:0\nBit depth                                : 8 bits\nScan type                                : Progressive\nCompression mode                         : Lossy\nBits/(Pixel*Frame)                       : 0.165\nStream size                              : 1.25 GiB (96%)\n\nAudio\nFormat                                   : MPEG Audio\nFormat version                           : Version 1\nFormat profile                           : Layer 3\nMode                                     : Joint stereo\nCodec ID/Hint                            : MP3\nAverage Duration                         : 45minutes\nBit rate mode                            : Constant\nBit rate                                 : 128 Kbps\nChannel(s)                               : 2 channels\nSampling rate                            : 44.1 KHz\nCompression mode                         : Lossy\nStream size                              : 42.0 MiB (3%)\nAlignment                                : Aligned on interleaves\nInterleave, duration                     : 26 ms (0.65 video frame)","torrent":{"xt":"urn:btih:474e8bc860e1e86ab210f72298597ef3d00a5684","amp;dn":"Stolichani+v+poveche+-+Season+2+-+Episode+4","amp;tr":["udp%3A%2F%2Ftracker.openbittorrent.com%3A80","udp%3A%2F%2Fopen.demonii.com%3A1337","udp%3A%2F%2Ftracker.coppersurfer.tk%3A6969","udp%3A%2F%2Fexodus.desync.com%3A6969"],"infoHash":"474e8bc860e1e86ab210f72298597ef3d00a5684","infoHashBuffer":{"type":"Buffer","data":[71,78,139,200,96,225,232,106,178,16,247,34,152,89,126,243,208,10,86,132]},"announce":[],"urlList":[]}}